<svg xmlns="http://www.w3.org/2000/svg" xmlns:xlink="http://www.w3.org/1999/xlink" width="140px" height="24px" viewBox="0 0 140 24" version="1.1">
  <!-- Generator: Sketch 47.1 (45422) - http://www.bohemiancoding.com/sketch -->
  <title>social icons dark</title>
  <defs/>
  <g id="Header-and-footer---desktop" stroke="none" stroke-width="1" fill="none" fill-rule="evenodd">
    <g id="footer-light" transform="translate(-581.000000, -398.000000)">
      <g id="social-icons-dark" transform="translate(581.000000, 398.000000)">
        <g id="icons-dark/instagram-dark" transform="translate(58.000000, 0.000000)">
          <g id="instagram">
            <rect id="Rectangle-2-Copy-3" stroke="#F1ECE3" x="0.5" y="0.5" width="23" height="23" rx="11.5"/>
            <g id="instagram-logo" transform="translate(6.000000, 6.000000)" fill-rule="nonzero" fill="#F1ECE3">
              <path d="M8.64042353,0 L3.29322353,0 C1.47734118,0 0,1.47741176 0,3.29329412 L0,8.64049412 C0,10.4564471 1.47734118,11.9337882 3.29322353,11.9337882 L8.64042353,11.9337882 C10.4564471,11.9337882 11.9337882,10.4563765 11.9337882,8.64049412 L11.9337882,3.29329412 C11.9338588,1.47741176 10.4564471,0 8.64042353,0 Z M10.8750353,8.64049412 C10.8750353,9.87261176 9.87261176,10.8749647 8.64049412,10.8749647 L3.29322353,10.8749647 C2.06117647,10.8750353 1.05882353,9.87261176 1.05882353,8.64049412 L1.05882353,3.29329412 C1.05882353,2.06124706 2.06117647,1.05882353 3.29322353,1.05882353 L8.64042353,1.05882353 C9.87254118,1.05882353 10.8749647,2.06124706 10.8749647,3.29329412 L10.8749647,8.64049412 L10.8750353,8.64049412 Z" id="Shape"/>
              <path d="M5.96689412,2.892 C4.27129412,2.892 2.89185882,4.27143529 2.89185882,5.96703529 C2.89185882,7.66256471 4.27129412,9.04192941 5.96689412,9.04192941 C7.66249412,9.04192941 9.04192941,7.66256471 9.04192941,5.96703529 C9.04192941,4.27143529 7.66249412,2.892 5.96689412,2.892 Z M5.96689412,7.98303529 C4.8552,7.98303529 3.95068235,7.07865882 3.95068235,5.96696471 C3.95068235,4.8552 4.85512941,3.95075294 5.96689412,3.95075294 C7.07865882,3.95075294 7.98310588,4.8552 7.98310588,5.96696471 C7.98310588,7.07865882 7.07858824,7.98303529 5.96689412,7.98303529 Z" id="Shape"/>
              <path d="M9.17089412,1.99418824 C8.96689412,1.99418824 8.76649412,2.07677647 8.62242353,2.22148235 C8.47764706,2.36548235 8.39442353,2.56595294 8.39442353,2.77065882 C8.39442353,2.97472941 8.47771765,3.17512941 8.62242353,3.31983529 C8.76642353,3.46383529 8.96689412,3.54712941 9.17089412,3.54712941 C9.3756,3.54712941 9.57536471,3.46383529 9.72007059,3.31983529 C9.86477647,3.17512941 9.94736471,2.97465882 9.94736471,2.77065882 C9.94736471,2.56595294 9.86477647,2.36548235 9.72007059,2.22148235 C9.57607059,2.07677647 9.3756,1.99418824 9.17089412,1.99418824 Z" id="Shape"/>
            </g>
          </g>
        </g>
        <g id="icons-dark/twitter-dark" transform="translate(29.000000, 0.000000)">
          <g id="twitter">
            <rect id="Rectangle-2-Copy-2" stroke="#F1ECE3" x="0.5" y="0.5" width="23" height="23" rx="11.5"/>
            <path d="M18.3109155,8.28313294 C17.8578047,8.48390981 17.3716233,8.6200744 16.8607999,8.68086467 C17.3823853,8.36852497 17.7816458,7.87311039 17.9708762,7.28459939 C17.4816171,7.57384603 16.9415653,7.78387622 16.3661296,7.89773226 C15.9053345,7.40615982 15.2498979,7.09997559 14.522909,7.09997559 C13.1281926,7.09997559 11.9973367,8.23083158 11.9973367,9.62478353 C11.9973367,9.82248267 12.0196452,10.0155753 12.0627335,10.2002192 C9.96412127,10.0948118 8.10321875,9.08935841 6.85774231,7.56153509 C6.64002784,7.93388055 6.5161742,8.36774045 6.5161742,8.83086899 C6.5161742,9.70709782 6.96236515,10.4802326 7.63934591,10.9325589 C7.22546111,10.9187192 6.83619817,10.8048631 6.49541458,10.6156127 L6.49541458,10.6471544 C6.49541458,11.8703223 7.36625235,12.8911644 8.52094569,13.1235032 C8.30938669,13.1804312 8.08630127,13.2119729 7.85551146,13.2119729 C7.69243179,13.2119729 7.53472307,13.1958198 7.38009209,13.1650425 C7.70164488,14.1689671 8.63403732,14.8990136 9.73874264,14.919029 C8.87482474,15.5960097 7.7855081,15.998348 6.60235074,15.998348 C6.39849613,15.998348 6.19769914,15.9860371 6,15.9637285 C7.11778065,16.6814842 8.44480698,17.0999756 9.87106508,17.0999756 C14.5167938,17.0999756 17.056226,13.2519835 17.056226,9.91481469 L17.0477572,9.58787084 C17.5439362,9.23397167 17.9731895,8.78932964 18.3109155,8.28313294 Z" id="Shape" fill="#F1ECE3" fill-rule="nonzero"/>
          </g>
        </g>
        <g id="icons-dark/facebook-dark">
          <g id="facebook">
            <rect id="Rectangle-2" stroke="#F1ECE3" x="0.5" y="0.5" width="23" height="23" rx="11.5"/>
            <path d="M12.794937,18 L12.794937,12.5262186 L14.6322185,12.5262186 L14.9073254,10.3929889 L12.794937,10.3929889 L12.794937,9.03105647 C12.794937,8.41343724 12.96644,7.9925501 13.852091,7.9925501 L14.9816963,7.99205649 L14.9816963,6.0840787 C14.7863354,6.05808177 14.1157899,6 13.3356624,6 C11.7070146,6 10.5919982,6.99413606 10.5919982,8.81979021 L10.5919982,10.3929889 L8.75,10.3929889 L8.75,12.5262186 L10.5919982,12.5262186 L10.5919982,18 L12.794937,18 Z" id="f" fill="#F1ECE3" fill-rule="nonzero"/>
          </g>
        </g>
        <g id="icons-dark/youtube-dark" transform="translate(87.000000, 0.000000)">
          <g id="youtube">
            <rect id="Rectangle-2-Copy-4" stroke="#F1ECE3" x="0.5" y="0.5" width="23" height="23" rx="11.5"/>
            <path d="M18.7074042,8.56140124 C19,9.6755959 19,11.9999412 19,11.9999412 C19,11.9999412 19,14.3244041 18.7074042,15.4384812 C18.5464131,16.0530227 18.072083,16.5372711 17.4697205,16.7014311 C16.3779314,17 11.9999424,17 11.9999424,17 C11.9999424,17 7.62206857,17 6.53027946,16.7014311 C5.92791703,16.5372711 5.45358686,16.0530227 5.29259579,15.4384812 C5,14.3244041 5,11.9999412 5,11.9999412 C5,11.9999412 5,9.6755959 5.29259579,8.56140124 C5.45358686,7.94685968 5.92791703,7.46272887 6.53027946,7.2984513 C7.62206857,7 11.9999424,7 11.9999424,7 C11.9999424,7 16.3779314,7 17.4697205,7.2984513 C18.072083,7.46272887 18.5464131,7.94685968 18.7074042,8.56140124 Z M10.6467877,14.1080328 L14.2838951,11.9652512 L10.6467877,9.8222345 L10.6467877,14.1080328 Z" id="Combined-Shape" fill="#F1ECE3"/>
          </g>
        </g>
        <g id="icons-dark/linkedin-dark" transform="translate(116.000000, 0.000000)">
          <g id="linkedin">
            <rect id="Rectangle-2-Copy-5" stroke="#F1ECE3" x="0.5" y="0.5" width="23" height="23" rx="11.5"/>
            <path d="M9.325,7.33695652 C9.325,7.9373913 8.8625,8.42391304 8.29166667,8.42391304 C7.72083333,8.42391304 7.25833333,7.9373913 7.25833333,7.33695652 C7.25833333,6.73695652 7.72083333,6.25 8.29166667,6.25 C8.8625,6.25 9.325,6.73695652 9.325,7.33695652 Z M9.33333333,9.29347826 L7.25,9.29347826 L7.25,16.25 L9.33333333,16.25 L9.33333333,9.29347826 Z M12.6591667,9.29347826 L10.5891667,9.29347826 L10.5891667,16.25 L12.6595833,16.25 L12.6595833,12.5982609 C12.6595833,10.5678261 15.1716667,10.4017391 15.1716667,12.5982609 L15.1716667,16.25 L17.25,16.25 L17.25,11.8452174 C17.25,8.41913043 13.5325,8.54391304 12.6591667,10.2304348 L12.6591667,9.29347826 Z" id="Shape" fill="#F1ECE3" fill-rule="nonzero"/>
          </g>
        </g>
      </g>
    </g>
  </g>
</svg>